<svg xmlns="http://www.w3.org/2000/svg" viewBox="0 0 100 100">
  <defs>
    <linearGradient id="grad" x1="0%" y1="0%" x2="100%" y2="100%">
      <stop offset="0%" style="stop-color:#037A8B;stop-opacity:1" />
      <stop offset="100%" style="stop-color:#026373;stop-opacity:1" />
    </linearGradient>
  </defs>
  <!-- Background Shape -->
  <rect width="90" height="90" x="5" y="5" rx="20" fill="url(#grad)" />
  <!-- Plate Icon -->
  <circle cx="50" cy="50" r="30" fill="none" stroke="white" stroke-width="4" stroke-dasharray="2,2" opacity="0.5" />
  <!-- Cloche / Food Cover Symbol -->
  <path d="M30 65 L70 65 C70 65 70 40 50 40 C30 40 30 65 30 65 Z" fill="white" />
  <circle cx="50" cy="37" r="4" fill="white" />
  <!-- Sparkles for AI / Smartness -->
  <path d="M75 25 L77 30 L82 32 L77 34 L75 39 L73 34 L68 32 L73 30 Z" fill="#FFD700" />
  <path d="M20 20 L21 23 L24 24 L21 25 L20 28 L19 25 L16 24 L19 23 Z" fill="#FFD700" opacity="0.8" />
</svg>
